<?xml version="1.0" encoding="UTF-8" standalone="no"?>
<!-- Created with Inkscape (http://www.inkscape.org/) -->
<svg width="342.73904mm" height="226.14801mm" viewBox="0 0 342.73905 226.14801" version="1.1" id="svg5" xml:space="preserve" sodipodi:docname="site layout.svg" inkscape:version="1.2.2 (732a01da63, 2022-12-09)" xmlns:inkscape="http://www.inkscape.org/namespaces/inkscape" xmlns:sodipodi="http://sodipodi.sourceforge.net/DTD/sodipodi-0.dtd" xmlns="http://www.w3.org/2000/svg" xmlns:svg="http://www.w3.org/2000/svg"><sodipodi:namedview id="namedview7" pagecolor="#ffffff" bordercolor="#666666" borderopacity="1.0" inkscape:showpageshadow="2" inkscape:pageopacity="0.0" inkscape:pagecheckerboard="0" inkscape:deskcolor="#d1d1d1" inkscape:document-units="mm" showgrid="false" inkscape:zoom="0.914906" inkscape:cx="662.90963" inkscape:cy="516.993" inkscape:window-width="2560" inkscape:window-height="1417" inkscape:window-x="-8" inkscape:window-y="-8" inkscape:window-maximized="1" inkscape:current-layer="layer1"/><defs id="defs2"><rect x="738.87372" y="93.998726" width="135.53305" height="39.348305" id="rect2867"/><inkscape:path-effect effect="powerstroke" id="path-effect2857" is_visible="true" lpeversion="1" offset_points="0.25,1.0121714" not_jump="true" sort_points="true" interpolator_type="CentripetalCatmullRom" interpolator_beta="0.75" start_linecap_type="round" linejoin_type="spiro" miter_limit="4" scale_width="1" end_linecap_type="round"/><inkscape:path-effect effect="simplify" id="path-effect2855" is_visible="true" lpeversion="1" steps="1" threshold="0.010421836" smooth_angles="0" helper_size="0" simplify_individual_paths="false" simplify_just_coalesce="false" step="1"/><inkscape:path-effect effect="powerstroke" id="path-effect2848" is_visible="true" lpeversion="1" offset_points="0.24699493,1.0121714" not_jump="true" sort_points="true" interpolator_type="CentripetalCatmullRom" interpolator_beta="0.75" start_linecap_type="round" linejoin_type="spiro" miter_limit="4" scale_width="1" end_linecap_type="round"/><inkscape:path-effect effect="simplify" id="path-effect2846" is_visible="true" lpeversion="1" steps="1" threshold="0.010421836" smooth_angles="0" helper_size="0" simplify_individual_paths="false" simplify_just_coalesce="false" step="1"/><inkscape:path-effect effect="powerstroke" id="path-effect2839" is_visible="true" lpeversion="1" offset_points="0.30639479,1.0121714" not_jump="true" sort_points="true" interpolator_type="CentripetalCatmullRom" interpolator_beta="0.75" start_linecap_type="round" linejoin_type="spiro" miter_limit="4" scale_width="1" end_linecap_type="round"/><inkscape:path-effect effect="simplify" id="path-effect2837" is_visible="true" lpeversion="1" steps="1" threshold="0.010421836" smooth_angles="0" helper_size="0" simplify_individual_paths="false" simplify_just_coalesce="false" step="1"/><inkscape:path-effect effect="powerstroke" id="path-effect2832" is_visible="true" lpeversion="1" offset_points="0.81797821,1.0121714" not_jump="true" sort_points="true" interpolator_type="CentripetalCatmullRom" interpolator_beta="0.75" start_linecap_type="round" linejoin_type="spiro" miter_limit="4" scale_width="1" end_linecap_type="round"/><inkscape:path-effect effect="simplify" id="path-effect2830" is_visible="true" lpeversion="1" steps="1" threshold="0.010421836" smooth_angles="0" helper_size="0" simplify_individual_paths="false" simplify_just_coalesce="false" step="1"/><inkscape:path-effect effect="powerstroke" id="path-effect2825" is_visible="true" lpeversion="1" offset_points="0.34014094,1.0121714" not_jump="true" sort_points="true" interpolator_type="CentripetalCatmullRom" interpolator_beta="0.75" start_linecap_type="round" linejoin_type="spiro" miter_limit="4" scale_width="1" end_linecap_type="round"/><inkscape:path-effect effect="simplify" id="path-effect2823" is_visible="true" lpeversion="1" steps="1" threshold="0.010421836" smooth_angles="0" helper_size="0" simplify_individual_paths="false" simplify_just_coalesce="false" step="1"/><inkscape:path-effect effect="powerstroke" id="path-effect2818" is_visible="true" lpeversion="1" offset_points="1.3264589,1.0121714" not_jump="true" sort_points="true" interpolator_type="CentripetalCatmullRom" interpolator_beta="0.75" start_linecap_type="round" linejoin_type="spiro" miter_limit="4" scale_width="1" end_linecap_type="round"/><inkscape:path-effect effect="simplify" id="path-effect2816" is_visible="true" lpeversion="1" steps="1" threshold="0.0032025118" smooth_angles="0" helper_size="0" simplify_individual_paths="false" simplify_just_coalesce="false" step="1"/><inkscape:path-effect effect="powerstroke" id="path-effect2811" is_visible="true" lpeversion="1" offset_points="0.69931521,1.0121714" not_jump="true" sort_points="true" interpolator_type="CentripetalCatmullRom" interpolator_beta="0.75" start_linecap_type="round" linejoin_type="spiro" miter_limit="4" scale_width="1" end_linecap_type="round"/><inkscape:path-effect effect="simplify" id="path-effect2809" is_visible="true" lpeversion="1" steps="1" threshold="0.0032025118" smooth_angles="0" helper_size="0" simplify_individual_paths="false" simplify_just_coalesce="false" step="1"/><inkscape:path-effect effect="powerstroke" id="path-effect2804" is_visible="true" lpeversion="1" offset_points="2.4463996,1.0121714" not_jump="true" sort_points="true" interpolator_type="CentripetalCatmullRom" interpolator_beta="0.75" start_linecap_type="round" linejoin_type="spiro" miter_limit="4" scale_width="1" end_linecap_type="round"/><inkscape:path-effect effect="simplify" id="path-effect2802" is_visible="true" lpeversion="1" steps="1" threshold="0.0032025118" smooth_angles="0" helper_size="0" simplify_individual_paths="false" simplify_just_coalesce="false" step="1"/><inkscape:path-effect effect="powerstroke" id="path-effect2797" is_visible="true" lpeversion="1" offset_points="3.2877318,0.72297956" not_jump="true" sort_points="true" interpolator_type="CentripetalCatmullRom" interpolator_beta="0.75" start_linecap_type="round" linejoin_type="spiro" miter_limit="4" scale_width="1" end_linecap_type="round"/><inkscape:path-effect effect="simplify" id="path-effect2795" is_visible="true" lpeversion="1" steps="1" threshold="0.0032025118" smooth_angles="0" helper_size="0" simplify_individual_paths="false" simplify_just_coalesce="false" step="1"/><inkscape:path-effect effect="powerstroke" id="path-effect2788" is_visible="true" lpeversion="1" offset_points="1.4456273,2.1689387" not_jump="true" sort_points="true" interpolator_type="CentripetalCatmullRom" interpolator_beta="0.75" start_linecap_type="round" linejoin_type="spiro" miter_limit="4" scale_width="1" end_linecap_type="round"/><inkscape:path-effect effect="simplify" id="path-effect2786" is_visible="true" lpeversion="1" steps="1" threshold="0.0032025118" smooth_angles="0" helper_size="0" simplify_individual_paths="false" simplify_just_coalesce="false" step="1"/><inkscape:path-effect effect="powerstroke" id="path-effect2781" is_visible="true" lpeversion="1" offset_points="0.32041285,2.1689387" not_jump="true" sort_points="true" interpolator_type="CentripetalCatmullRom" interpolator_beta="0.75" start_linecap_type="round" linejoin_type="spiro" miter_limit="4" scale_width="1" end_linecap_type="round"/><inkscape:path-effect effect="simplify" id="path-effect2779" is_visible="true" lpeversion="1" steps="1" threshold="0.0032025118" smooth_angles="0" helper_size="0" simplify_individual_paths="false" simplify_just_coalesce="false" step="1"/><inkscape:path-effect effect="powerstroke" id="path-effect2774" is_visible="true" lpeversion="1" offset_points="0.42456712,2.1689387" not_jump="true" sort_points="true" interpolator_type="CentripetalCatmullRom" interpolator_beta="0.75" start_linecap_type="round" linejoin_type="spiro" miter_limit="4" scale_width="1" end_linecap_type="round"/><inkscape:path-effect effect="simplify" id="path-effect2772" is_visible="true" lpeversion="1" steps="1" threshold="0.0032025118" smooth_angles="0" helper_size="0" simplify_individual_paths="false" simplify_just_coalesce="false" step="1"/><inkscape:path-effect effect="powerstroke" id="path-effect2767" is_visible="true" lpeversion="1" offset_points="0.82917961,2.1689387" not_jump="true" sort_points="true" interpolator_type="CentripetalCatmullRom" interpolator_beta="0.75" start_linecap_type="round" linejoin_type="spiro" miter_limit="4" scale_width="1" end_linecap_type="round"/><inkscape:path-effect effect="simplify" id="path-effect2765" is_visible="true" lpeversion="1" steps="1" threshold="0.0032025118" smooth_angles="0" helper_size="0" simplify_individual_paths="false" simplify_just_coalesce="false" step="1"/><inkscape:path-effect effect="powerstroke" id="path-effect2760" is_visible="true" lpeversion="1" offset_points="0.48994745,2.1689387" not_jump="true" sort_points="true" interpolator_type="CentripetalCatmullRom" interpolator_beta="0.75" start_linecap_type="round" linejoin_type="spiro" miter_limit="4" scale_width="1" end_linecap_type="round"/><inkscape:path-effect effect="simplify" id="path-effect2758" is_visible="true" lpeversion="1" steps="1" threshold="0.0032025118" smooth_angles="0" helper_size="0" simplify_individual_paths="false" simplify_just_coalesce="false" step="1"/><inkscape:path-effect effect="powerstroke" id="path-effect2753" is_visible="true" lpeversion="1" offset_points="0.75,2.1689387" not_jump="true" sort_points="true" interpolator_type="CentripetalCatmullRom" interpolator_beta="0.75" start_linecap_type="round" linejoin_type="spiro" miter_limit="4" scale_width="1" end_linecap_type="round"/><inkscape:path-effect effect="simplify" id="path-effect2751" is_visible="true" lpeversion="1" steps="1" threshold="0.0032025118" smooth_angles="0" helper_size="0" simplify_individual_paths="false" simplify_just_coalesce="false" step="1"/><inkscape:path-effect effect="powerstroke" id="path-effect2620" is_visible="true" lpeversion="1" offset_points="0.45318563,1.0844693" not_jump="true" sort_points="true" interpolator_type="CentripetalCatmullRom" interpolator_beta="0.75" start_linecap_type="round" linejoin_type="spiro" miter_limit="4" scale_width="1" end_linecap_type="round"/><inkscape:path-effect effect="simplify" id="path-effect2618" is_visible="true" lpeversion="1" steps="1" threshold="0.0032025118" smooth_angles="0" helper_size="0" simplify_individual_paths="false" simplify_just_coalesce="false" step="1"/><inkscape:path-effect effect="powerstroke" id="path-effect2613" is_visible="true" lpeversion="1" offset_points="0.62382812,1.0844693" not_jump="true" sort_points="true" interpolator_type="CentripetalCatmullRom" interpolator_beta="0.75" start_linecap_type="round" linejoin_type="spiro" miter_limit="4" scale_width="1" end_linecap_type="round"/><inkscape:path-effect effect="simplify" id="path-effect2611" is_visible="true" lpeversion="1" steps="1" threshold="0.0032025118" smooth_angles="0" helper_size="0" simplify_individual_paths="false" simplify_just_coalesce="false" step="1"/><inkscape:path-effect effect="powerstroke" id="path-effect2606" is_visible="true" lpeversion="1" offset_points="0.49656033,1.0844693" not_jump="true" sort_points="true" interpolator_type="CentripetalCatmullRom" interpolator_beta="0.75" start_linecap_type="round" linejoin_type="spiro" miter_limit="4" scale_width="1" end_linecap_type="round"/><inkscape:path-effect effect="simplify" id="path-effect2604" is_visible="true" lpeversion="1" steps="1" threshold="0.0032025118" smooth_angles="0" helper_size="0" simplify_individual_paths="false" simplify_just_coalesce="false" step="1"/><inkscape:path-effect effect="powerstroke" id="path-effect2599" is_visible="true" lpeversion="1" offset_points="0.35483871,1.0844693" not_jump="true" sort_points="true" interpolator_type="CentripetalCatmullRom" interpolator_beta="0.75" start_linecap_type="round" linejoin_type="spiro" miter_limit="4" scale_width="1" end_linecap_type="round"/><inkscape:path-effect effect="simplify" id="path-effect2597" is_visible="true" lpeversion="1" steps="1" threshold="0.0032025118" smooth_angles="0" helper_size="0" simplify_individual_paths="false" simplify_just_coalesce="false" step="1"/><inkscape:path-effect effect="powerstroke" id="path-effect2590" is_visible="true" lpeversion="1" offset_points="1.4432003,2.1689387" not_jump="true" sort_points="true" interpolator_type="CentripetalCatmullRom" interpolator_beta="0.75" start_linecap_type="round" linejoin_type="spiro" miter_limit="4" scale_width="1" end_linecap_type="round"/><inkscape:path-effect effect="simplify" id="path-effect2588" is_visible="true" lpeversion="1" steps="1" threshold="0.0032025118" smooth_angles="0" helper_size="0" simplify_individual_paths="false" simplify_just_coalesce="false" step="1"/><inkscape:path-effect effect="powerstroke" id="path-effect2583" is_visible="true" lpeversion="1" offset_points="1.0675235,2.1689387" not_jump="true" sort_points="true" interpolator_type="CentripetalCatmullRom" interpolator_beta="0.75" start_linecap_type="round" linejoin_type="spiro" miter_limit="4" scale_width="1" end_linecap_type="round"/><inkscape:path-effect effect="simplify" id="path-effect2581" is_visible="true" lpeversion="1" steps="1" threshold="0.0032025118" smooth_angles="0" helper_size="0" simplify_individual_paths="false" simplify_just_coalesce="false" step="1"/><inkscape:path-effect effect="powerstroke" id="path-effect2576" is_visible="true" lpeversion="1" offset_points="0.84381221,2.1689387" not_jump="true" sort_points="true" interpolator_type="CentripetalCatmullRom" interpolator_beta="0.75" start_linecap_type="round" linejoin_type="spiro" miter_limit="4" scale_width="1" end_linecap_type="round"/><inkscape:path-effect effect="simplify" id="path-effect2574" is_visible="true" lpeversion="1" steps="1" threshold="0.0032025118" smooth_angles="0" helper_size="0" simplify_individual_paths="false" simplify_just_coalesce="false" step="1"/><inkscape:path-effect effect="powerstroke" id="path-effect2569" is_visible="true" lpeversion="1" offset_points="1.0895718,2.1689387" not_jump="true" sort_points="true" interpolator_type="CentripetalCatmullRom" interpolator_beta="0.75" start_linecap_type="round" linejoin_type="spiro" miter_limit="4" scale_width="1" end_linecap_type="round"/><inkscape:path-effect effect="simplify" id="path-effect2567" is_visible="true" lpeversion="1" steps="1" threshold="0.0032025118" smooth_angles="0" helper_size="0" simplify_individual_paths="false" simplify_just_coalesce="false" step="1"/><rect x="112.57987" y="314.23993" width="204.93909" height="320.25146" id="rect2418"/><rect x="112.03337" y="326.80954" width="69.406036" height="136.07954" id="rect2412"/><inkscape:path-effect effect="simplify" id="path-effect2837-8" is_visible="true" lpeversion="1" steps="1" threshold="0.010421836" smooth_angles="0" helper_size="0" simplify_individual_paths="false" simplify_just_coalesce="false" step="1"/><inkscape:path-effect effect="powerstroke" id="path-effect2839-8" is_visible="true" lpeversion="1" offset_points="0.30639479,1.0121714" not_jump="true" sort_points="true" interpolator_type="CentripetalCatmullRom" interpolator_beta="0.75" start_linecap_type="round" linejoin_type="spiro" miter_limit="4" scale_width="1" end_linecap_type="round"/><inkscape:path-effect effect="simplify" id="path-effect2846-9" is_visible="true" lpeversion="1" steps="1" threshold="0.010421836" smooth_angles="0" helper_size="0" simplify_individual_paths="false" simplify_just_coalesce="false" step="1"/><inkscape:path-effect effect="powerstroke" id="path-effect2848-4" is_visible="true" lpeversion="1" offset_points="0.24699493,1.0121714" not_jump="true" sort_points="true" interpolator_type="CentripetalCatmullRom" interpolator_beta="0.75" start_linecap_type="round" linejoin_type="spiro" miter_limit="4" scale_width="1" end_linecap_type="round"/><inkscape:path-effect effect="simplify" id="path-effect2855-9" is_visible="true" lpeversion="1" steps="1" threshold="0.010421836" smooth_angles="0" helper_size="0" simplify_individual_paths="false" simplify_just_coalesce="false" step="1"/><inkscape:path-effect effect="powerstroke" id="path-effect2857-4" is_visible="true" lpeversion="1" offset_points="0.25,1.0121714" not_jump="true" sort_points="true" interpolator_type="CentripetalCatmullRom" interpolator_beta="0.75" start_linecap_type="round" linejoin_type="spiro" miter_limit="4" scale_width="1" end_linecap_type="round"/></defs><g inkscape:label="Layer 1" inkscape:groupmode="layer" id="layer1" transform="translate(-4.9162609,-0.28919184)"><rect style="fill:#ececec;fill-opacity:1;stroke:#000000;stroke-width:0.190323;stroke-opacity:1" id="rect10692" width="343.63416" height="227.37903" x="4.5899405" y="-0.037128743"/><rect style="fill:#ffffff;stroke:#000000;stroke-width:0.264583" id="rect1810" width="134.76338" height="204.16942" x="13.013634" y="20.532619"/><text xml:space="preserve" style="font-size:12.7px;line-height:1.25;font-family:sans-serif;stroke-width:0.264583" x="39.040901" y="9.8325205" id="text1918"><tspan sodipodi:role="line" id="tspan1916" style="stroke-width:0.264583" x="39.040901" y="9.8325205">Home Page</tspan></text><rect style="fill:#ffffff;stroke:#000000;stroke-width:0.264583" id="rect1920" width="134.76338" height="56.681599" x="13.158229" y="20.388023"/><ellipse style="fill:#4d4d4d;stroke:#000000;stroke-width:0.235355" id="path2082" cx="68.604797" cy="73.23188" rx="1.3823225" ry="1.3823222"/><ellipse style="fill:#ffffff;stroke:#000000;stroke-width:0.225678" id="path2084" cx="75.573547" cy="73.23188" rx="1.3871615" ry="1.3871611"/><ellipse style="fill:#ffffff;stroke:#000000;stroke-width:0.204602" id="path2086" cx="82.542297" cy="73.23188" rx="1.397699" ry="1.3976989"/><ellipse style="fill:#ffffff;stroke:#000000;stroke-width:0.187191" id="path2088" cx="89.511047" cy="73.23188" rx="1.4064044" ry="1.4064045"/><path style="fill:none;stroke:#000000;stroke-width:0.264583px;stroke-linecap:butt;stroke-linejoin:miter;stroke-opacity:1" d="m 143.87293,48.873417 2.74732,3.18111 -3.03651,2.891919" id="path2200"/><path style="fill:none;stroke:#000000;stroke-width:0.264583px;stroke-linecap:butt;stroke-linejoin:miter;stroke-opacity:1" d="m 16.893144,54.941783 -2.747305,-3.18111 3.036492,-2.89192" id="path2200-7"/><text xml:space="preserve" style="font-size:9.87778px;line-height:1.25;font-family:sans-serif;stroke-width:0.264583" x="60.58569" y="51.476139" id="text2204"><tspan sodipodi:role="line" id="tspan2202" style="font-size:9.87778px;stroke-width:0.264583" x="60.58569" y="51.476139">Images</tspan></text><rect style="fill:#ffffff;stroke:#000000;stroke-width:0.264583" id="rect2330" width="134.76338" height="6.2176242" x="13.158227" y="14.170398"/><rect style="fill:#ffffff;stroke:#000000;stroke-width:0.264604" id="rect2334-6" width="2.8923962" height="2.8918972" x="40.603359" y="16.112116"/><rect style="fill:#ffffff;stroke:#000000;stroke-width:0.264604" id="rect2334-2" width="2.8923962" height="2.8918972" x="82.428207" y="16.112116"/><rect style="fill:#ffffff;stroke:#000000;stroke-width:0.264604" id="rect2334-60" width="2.8923962" height="2.8918972" x="120.01999" y="16.112116"/><rect style="fill:#ffffff;stroke:#000000;stroke-width:0.264604" id="rect2334" width="2.8923962" height="2.8918972" x="15.182738" y="16.112116"/><text xml:space="preserve" style="font-size:4.23333px;line-height:1.25;font-family:sans-serif;stroke-width:0.264583" x="19.336763" y="19.064947" id="text2338"><tspan sodipodi:role="line" id="tspan2336" style="stroke-width:0.264583" x="19.336763" y="19.064947">Home</tspan></text><text xml:space="preserve" style="font-size:4.23333px;line-height:1.25;font-family:sans-serif;stroke-width:0.264583" x="44.948589" y="19.134193" id="text2392"><tspan sodipodi:role="line" id="tspan2390" style="stroke-width:0.264583" x="44.948589" y="19.134193">Products</tspan></text><text xml:space="preserve" style="font-size:4.23333px;line-height:1.25;font-family:sans-serif;stroke-width:0.264583" x="87.158913" y="19.134193" id="text2396"><tspan sodipodi:role="line" id="tspan2394" style="stroke-width:0.264583" x="87.158913" y="19.134193">About </tspan></text><text xml:space="preserve" style="font-size:4.23333px;line-height:1.25;font-family:sans-serif;stroke-width:0.264583" x="124.89866" y="19.092854" id="text2400"><tspan sodipodi:role="line" id="tspan2398" style="stroke-width:0.264583" x="124.89866" y="19.092854">Contact</tspan></text><text xml:space="preserve" style="font-size:4.23333px;line-height:1.25;font-family:sans-serif;stroke-width:0.264583" x="29.642162" y="89.79406" id="text2404"><tspan sodipodi:role="line" id="tspan2402" style="stroke-width:0.264583" x="29.642162" y="89.79406"/></text><text xml:space="preserve" transform="matrix(0.26458333,0,0,0.26458333,0,1.1567673)" id="text2410" style="font-size:16px;line-height:1.25;font-family:sans-serif;white-space:pre;shape-inside:url(#rect2412);display:inline"><tspan x="112.0332" y="341.40588" id="tspan11175">
</tspan><tspan x="112.0332" y="361.40588" id="tspan11177">
</tspan><tspan x="112.0332" y="477.48596" id="tspan11181"><tspan dx="0 12.328125 4.390625 9.96875 10.125 4.390625 8.3359375 8.3359375 4.390625 15.5625 9.7109375 8.3359375 1811.875 9.609375 6.3046875 1811.875 9.96875 9.7109375 4.390625 9.7109375 6.828125 1811.875 9.53125 8.3359375 6.3046875 1811.875 8.3359375 9.7109375 6.828125 6.828125 10.125 9.96875 6.3046875 4.390625 1811.875 10.125 9.609375 6.828125 10.125 15.5625 5.8203125 1811.875 6.734375 9.96875 8.3359375 9.609375 15.5625 1811.875 9.53125 4.390625 4.390625 9.96875 9.53125 10.125 9.96875 4.390625 1811.875 9.53125 6.828125 6.828125 9.7109375 6.828125 1811.875 8.3359375 9.53125 9.96875 1811.875 9.96875 4.390625 8.3359375 6.3046875 4.390625 10.125 8.3359375 6.3046875 4.390625 9.5546875 5.8203125 1811.875 12.59375 10.125 4.390625 9.609375 1811.875 8.3359375 4.390625 10.125 6.3046875 1811.875 4.390625 9.96875 1811.875 6.828125 9.53125 6.828125 10.125 15.5625 1811.875 9.96875 10.125 4.390625 1811.875 10.125 9.7109375 10.125 1811.875 9.7109375 15.5625 10.125 4.390625 8.3359375 1811.875 9.328125 9.53125 4.390625 4.390625 6.3046875 1811.875 4.390625 9.96875 9.328125 9.53125 10.125 6.3046875 9.7109375 6.828125 9.53125 5.8203125 1811.875 10.117188 8.3359375 6.3046875 1811.875 9.53125 8.3359375 6.3046875 1811.875 9.53125 6.3046875 1811.875 4.390625 9.96875 8.3359375 9.609375 15.5625 1811.875 6.828125 9.53125 15.5625 1811.875 4.390625 9.96875 8.3359375 9.609375 15.5625 1811.875 4.390625 8.3359375 6.3046875 9.53125 1811.875 8.3359375 4.390625 6.3046875 1811.875 15.5625 9.609375 9.96875 10.125 9.609375 15.5625 5.8203125 1811.875 10.117188 9.46875 9.96875 9.53125 9.96875 4.390625 6.3046875 9.609375 1811.875 9.53125 9.3125 8.3359375 9.53125 9.96875 6.3046875 10.125 6.828125 4.390625 1811.875 9.609375 6.828125 8.3359375 10.125 4.390625 6.3046875 9.53125 8.3359375 6.3046875 9.7109375 1811.875 9.96875 9.7109375 4.390625 9.7109375 6.828125 9.53125 15.5625 1811.875 8.3359375 9.7109375 10.125 8.3359375 9.53125 9.96875 10.125 10.125 10.125 6.3046875 10.125 4.5625" id="tspan11179">Dignissimos at dolor est corrupti harum. Ipsam eligendi error sed distinctio. Quia sint id rerum qui non omnis velit inventore. Est est et ipsam rem ipsam iste sit magnam. Expedita excepturi architecto dolorem consequuntur.</tspan></tspan></text><text xml:space="preserve" transform="matrix(0.29389233,0,0,0.26458333,-17.194785,2.6027264)" id="text2416" style="font-size:16px;line-height:1.25;font-family:sans-serif;white-space:pre;shape-inside:url(#rect2418);display:inline"><tspan x="112.58008" y="328.83752" id="tspan11183">
</tspan><tspan x="112.58008" y="348.83752" id="tspan11185">
</tspan><tspan x="112.58008" y="368.83752" id="tspan11187">Dignissimos at dolor est </tspan><tspan x="112.58008" y="388.83752" id="tspan11189">corrupti harum. Ipsam </tspan><tspan x="112.58008" y="408.83752" id="tspan11191">eligendi error sed </tspan><tspan x="112.58008" y="428.83752" id="tspan11193">distinctio. Quia sint id </tspan><tspan x="112.58008" y="448.83752" id="tspan11195">rerum qui non omnis </tspan><tspan x="112.58008" y="468.83752" id="tspan11197">velit inventore. Est est et </tspan><tspan x="112.58008" y="488.83752" id="tspan11199">ipsam rem ipsam iste sit </tspan><tspan x="112.58008" y="508.83752" id="tspan11201">magnam. Expedita </tspan><tspan x="112.58008" y="528.83752" id="tspan11203">excepturi architecto </tspan><tspan x="112.58008" y="548.83752" id="tspan11205">dolorem consequuntur.</tspan></text><rect style="fill:#ffffff;stroke:#000000;stroke-width:0.264583" id="rect2422" width="64.634369" height="52.777504" x="78.660172" y="86.179169" ry="3.7594936"/><text xml:space="preserve" style="font-size:6.35px;line-height:1.25;font-family:sans-serif;stroke-width:0.264583" x="100.78334" y="113.07401" id="text2426"><tspan sodipodi:role="line" id="tspan2424" style="font-size:6.35px;stroke-width:0.264583" x="100.78334" y="113.07401">Image</tspan></text><rect style="fill:#ffffff;stroke:#000000;stroke-width:0.264583" id="rect2428" width="134.90799" height="37.884129" x="12.869036" y="187.54091" ry="0" rx="0"/><text xml:space="preserve" style="font-size:6.35px;line-height:1.25;font-family:sans-serif;stroke-width:0.264583" x="19.809639" y="91.240021" id="text2432"><tspan sodipodi:role="line" id="tspan2430" style="stroke-width:0.264583" x="19.809639" y="91.240021">Title</tspan></text><path style="fill:#000000;stroke:none;stroke-width:1px;stroke-linecap:butt;stroke-linejoin:miter;stroke-opacity:1" d="M 735.59469,460.70306 129.5215,589.13156" id="path2594"/><path d="m 18.630995,156.66945 c 2.065376,0.0417 4.794676,0.0768 8.744903,0.0735 5.49424,-0.005 10.364077,-0.0688 15.858317,-0.0733 a 1.0844693,1.0844693 90 0 0 -7.6e-5,-2.16894 c -4.836028,1.7e-4 -11.024009,0.0731 -15.860037,0.0733 -3.935476,0.003 -6.649587,-0.0317 -8.699353,-0.0731 a 1.0844693,1.0844693 90 0 0 -0.04375,2.1685 z" id="path-1" inkscape:path-effect="#path-effect2597;#path-effect2599" inkscape:original-d="m 18.652872,155.5852 c 8.294997,0.16563 16.346164,0 24.581305,0" style="fill:#000000;fill-rule:nonzero;stroke:none;stroke-width:1px;stroke-linecap:butt;stroke-linejoin:miter;stroke-opacity:1"/><path d="m 18.301519,162.30577 c 1.782847,-0.13591 4.121025,-0.2408 8.430891,-0.1585 -2.9e-5,0 0.0589,0.001 0.05887,0.001 1.067745,0.0207 6.049138,0.16359 8.620776,0.15828 0.01423,-3e-5 0.02846,-3.4e-4 0.04268,-9.3e-4 0.376577,-0.0156 0.738728,-0.0706 1.090551,-0.13836 0.328043,-0.0632 0.640973,-0.13583 0.932017,-0.1938 0.287618,-0.0573 0.541685,-0.098 0.781108,-0.11252 0.236742,-0.0143 0.44579,-0.002 0.641219,0.0406 0.109277,0.023 0.188714,0.048 0.232024,0.0624 a 1.0844693,1.0844693 90 0 0 0.686058,-2.05758 c -0.08963,-0.0299 -0.254066,-0.0816 -0.464872,-0.12586 -0.421514,-0.0917 -0.835001,-0.10813 -1.225439,-0.0845 -0.38374,0.0232 -0.748876,0.0856 -1.073754,0.15034 -0.337207,0.0672 -0.643535,0.13821 -0.918405,0.19113 -0.289645,0.0558 -0.529429,0.0897 -0.750471,0.10023 -2.550441,0.004 -7.423708,-0.1361 -8.551523,-0.15792 -2.7e-5,0 -0.0594,-0.001 -0.05943,-0.001 -4.369227,-0.0834 -6.776875,0.0226 -8.637169,0.16439 a 1.0844693,1.0844693 90 0 0 0.164868,2.16266 z" id="path-1-5" inkscape:path-effect="#path-effect2604;#path-effect2606" inkscape:original-d="m 18.219085,161.22444 c 5.711876,-0.43187 11.342231,0 17.062317,0 1.370619,0 2.71212,-0.78292 4.193281,-0.2892" style="fill:#000000;fill-rule:nonzero;stroke:none;stroke-width:1px;stroke-linecap:butt;stroke-linejoin:miter;stroke-opacity:1"/><path d="m 19.032745,167.65515 c 1.378485,-0.11567 2.996119,-0.18979 6.09539,-0.16755 0.972803,0.007 2.25238,0.0279 3.727128,0.0286 0.219911,0.008 0.537324,0.0511 0.950774,0.0687 0.194491,0.008 0.416287,0.008 0.650976,-0.0173 0.224376,-0.0246 0.460642,-0.0728 0.701211,-0.15971 0.771793,-0.22795 1.575913,-0.30406 2.341151,-0.32975 1.093432,-0.0367 2.073319,0.004 2.65253,0.002 a 1.0844693,1.0844693 90 0 0 -0.0059,-2.16894 c -0.541544,0.001 -1.491086,-0.0425 -2.71945,-0.001 -0.853857,0.0287 -1.882779,0.11634 -2.92395,0.42965 -0.02428,0.007 -0.0483,0.0155 -0.072,0.0245 -0.05561,0.0211 -0.122816,0.0375 -0.209888,0.0471 -0.08938,0.01 -0.193914,0.0118 -0.322714,0.006 -0.272466,-0.0116 -0.624797,-0.059 -0.991361,-0.0701 -0.01087,-3.3e-4 -0.02174,-5e-4 -0.03261,-5e-4 -1.456748,-5.6e-4 -2.744298,-0.0215 -3.730371,-0.0285 -3.146809,-0.0226 -4.832372,0.0526 -6.29232,0.17509 a 1.0844693,1.0844693 90 0 0 0.181362,2.16134 z" id="path-1-57" inkscape:path-effect="#path-effect2611;#path-effect2613" inkscape:original-d="m 18.942064,166.57448 c 3.248634,-0.27501 6.559015,-0.14459 9.832522,-0.14459 0.506579,0 1.377256,0.1675 1.879747,0 1.708621,-0.56954 3.63458,-0.43379 5.494644,-0.43379" style="fill:#000000;fill-rule:nonzero;stroke:none;stroke-width:1px;stroke-linecap:butt;stroke-linejoin:miter;stroke-opacity:1"/><path d="m 19.005007,172.42754 c 0.314769,0.0238 2.522802,0.19586 4.089472,0.28652 1.062546,0.0615 2.979418,0.16047 5.002018,0.12507 0.0048,-8e-5 0.0096,-2e-4 0.01439,-3.4e-4 0.918482,-0.0283 2.125327,-0.0581 3.279769,-0.34136 0.01179,-0.003 0.02354,-0.006 0.03523,-0.009 0.165023,-0.0464 0.363043,-0.10393 0.566709,-0.19039 0.313464,-0.13309 0.538187,-0.2922 0.707891,-0.45254 a 1.0844693,1.0844693 90 0 0 -1.489568,-1.57654 c 0.0061,-0.006 0.01501,-0.002 -0.06595,0.0326 -0.06364,0.027 -0.142291,0.0525 -0.288464,0.0939 -0.873817,0.2144 -1.842683,0.24583 -2.805105,0.27546 -1.935327,0.0336 -3.782478,-0.0612 -4.831621,-0.12191 -1.541946,-0.0892 -3.722152,-0.25912 -4.051461,-0.28398 a 1.0844693,1.0844693 90 0 0 -0.163306,2.16278 z" id="path-1-8" inkscape:path-effect="#path-effect2618;#path-effect2620" inkscape:original-d="m 19.08666,171.34615 c 1.759142,0.11668 11.546896,1.03295 12.869036,-0.28919" style="fill:#000000;fill-rule:nonzero;stroke:none;stroke-width:1px;stroke-linecap:butt;stroke-linejoin:miter;stroke-opacity:1"/><text xml:space="preserve" style="font-size:4.93889px;line-height:1.25;font-family:sans-serif;stroke-width:0.264583" x="17.640701" y="195.2045" id="text2632"><tspan sodipodi:role="line" id="tspan2630" style="font-size:4.93889px;stroke-width:0.264583" x="17.640701" y="195.2045">Contact Info</tspan></text><ellipse style="fill:#000000;stroke:#000000;stroke-width:0.0971763" id="path2634" cx="20.032753" cy="198.31953" rx="0.45141208" ry="0.45141184"/><ellipse style="fill:#000000;stroke:#000000;stroke-width:0.0971763" id="path2634-6" cx="20.098831" cy="202.61888" rx="0.45141208" ry="0.45141184"/><ellipse style="fill:#000000;stroke:#000000;stroke-width:0.0971763" id="path2634-1" cx="20.098831" cy="206.323" rx="0.45141208" ry="0.45141184"/><ellipse style="fill:#000000;stroke:#000000;stroke-width:0.0971763" id="path2634-66" cx="20.098831" cy="210.55627" rx="0.45141208" ry="0.45141184"/><text xml:space="preserve" style="font-size:2.82222px;line-height:1.25;font-family:sans-serif;stroke-width:0.264583" x="21.400194" y="199.2532" id="text2740"><tspan sodipodi:role="line" id="tspan2738" style="font-size:2.82222px;stroke-width:0.264583" x="21.400194" y="199.2532">1234567</tspan></text><text xml:space="preserve" style="font-size:2.82223px;line-height:1.25;font-family:sans-serif;stroke-width:0.264583" x="21.544792" y="203.44647" id="text2744"><tspan sodipodi:role="line" id="tspan2742" style="stroke-width:0.264583" x="21.544792" y="203.44647">email@gmail.com</tspan></text><text xml:space="preserve" style="font-size:6.35px;line-height:1.25;font-family:sans-serif;stroke-width:0.264583" x="151.8257" y="9.8325205" id="text2748"><tspan sodipodi:role="line" id="tspan2746" style="font-size:6.35px;stroke-width:0.264583" x="151.8257" y="9.8325205">Navigation</tspan></text><path d="m 153.32674,18.047041 c 0.47366,0.112613 2.83158,0.679451 5.00221,1.107324 0.79225,0.156167 1.93636,0.370132 3.21836,0.558442 2.21534,0.325407 5.23166,0.638868 8.48586,0.412192 1.21573,-0.09486 2.61204,-0.323421 3.93482,-0.853122 0.63804,-0.255497 1.25864,-0.580826 1.83384,-0.994264 0.56824,-0.408436 1.08105,-0.894928 1.51928,-1.468792 0.60066,-0.648313 1.14657,-1.424155 1.53021,-1.947199 0.66766,-0.910253 1.03482,-1.326792 1.42042,-1.679947 a 1.0121714,1.0121714 90 0 0 -1.36724,-1.492852 c -0.523,0.478989 -0.97923,1.012612 -1.6855,1.975514 -0.43385,0.591492 -0.90266,1.256812 -1.41184,1.799781 -0.0252,0.02686 -0.0489,0.05508 -0.071,0.08453 -0.31439,0.418602 -0.68837,0.777949 -1.11582,1.08519 -0.42364,0.304501 -0.89595,0.554981 -1.40487,0.758776 -1.06601,0.426878 -2.24168,0.628507 -3.33137,0.713562 -3.04049,0.211754 -5.89581,-0.08088 -8.04258,-0.396217 -1.23731,-0.181746 -2.34629,-0.388996 -3.12104,-0.541714 -2.12493,-0.418864 -4.44313,-0.975966 -4.92548,-1.090646 a 1.0121714,1.0121714 90 0 0 -0.46824,1.969446 z" id="path-1-84" inkscape:path-effect="#path-effect2837;#path-effect2839" inkscape:original-d="m 153.56086,17.062318 c 5.13162,1.263962 16.58759,3.786785 21.40019,0.578384 1.85017,-1.233442 3.95763,-4.870731 4.62707,-5.205453" style="fill:#000000;fill-rule:nonzero;stroke:none;stroke-width:1px;stroke-linecap:butt;stroke-linejoin:miter;stroke-opacity:1"/><path style="fill:#000000;stroke:none;stroke-width:1px;stroke-linecap:butt;stroke-linejoin:miter;stroke-opacity:1" d="M 755.26884,127.88199 627.38685,81.975634" id="path2843"/><path d="m 153.05606,17.111685 c 0.28513,0.360639 0.85578,1.087995 1.14091,1.448634 0.46156,0.584244 2.09512,2.688593 3.76797,4.337214 0.007,0.0075 0.0236,0.02372 0.0385,0.03877 0.0208,0.02082 0.0385,0.03857 0.0466,0.04668 a 1.0121714,1.0121714 90 0 0 1.43242,-1.430424 c -0.008,-0.0081 -0.0258,-0.02585 -0.0456,-0.04569 -0.014,-0.01407 -0.0302,-0.03033 -0.0443,-0.04448 -1.57144,-1.54875 -3.12206,-3.542909 -3.60717,-4.156968 -0.33646,-0.425891 -0.80493,-1.023349 -1.14139,-1.449239 a 1.0121714,1.0121714 90 0 0 -1.58798,1.255502 z" id="path-1-6" inkscape:path-effect="#path-effect2846;#path-effect2848" inkscape:original-d="m 153.85005,16.483934 c 2.00458,2.531212 2.96157,3.829145 4.91626,5.783837" style="fill:#000000;fill-rule:nonzero;stroke:none;stroke-width:1px;stroke-linecap:butt;stroke-linejoin:miter;stroke-opacity:1"/><path style="fill:#000000;stroke:none;stroke-width:1px;stroke-linecap:butt;stroke-linejoin:miter;stroke-opacity:1" d="M 683.13029,95.091736 633.9449,57.929448" id="path2852"/><path d="m 153.94615,18.287481 c 0.20411,-0.08402 0.61486,-0.24698 1.23497,-0.432486 0.32224,-0.0964 0.72653,-0.207269 1.30598,-0.345296 0.76428,-0.182053 1.73646,-0.377818 2.76263,-0.639781 0.45605,-0.120116 0.77791,-0.221487 0.99345,-0.293336 a 1.0121714,1.0121714 90 0 0 -0.6402,-1.920446 c -0.18018,0.06007 -0.46026,0.148589 -0.86147,0.254287 -0.9456,0.241364 -1.91965,0.438554 -2.72349,0.63003 -0.61279,0.145967 -1.05438,0.266619 -1.41708,0.37512 -0.70133,0.209802 -1.17743,0.397902 -1.42537,0.499966 a 1.0121714,1.0121714 90 0 0 0.77058,1.871942 z" id="path-1-1" inkscape:path-effect="#path-effect2855;#path-effect2857" inkscape:original-d="m 153.56086,17.35151 c 2.31185,-0.928646 4.41701,-1.086746 6.36222,-1.735151" style="fill:#000000;fill-rule:nonzero;stroke:none;stroke-width:1px;stroke-linecap:butt;stroke-linejoin:miter;stroke-opacity:1"/><path d="m 153.61593,50.436524 c 0.47366,0.112613 2.83158,0.679451 5.00221,1.107324 0.79225,0.156167 1.93636,0.370132 3.21836,0.558442 2.21534,0.325407 5.23166,0.638868 8.48586,0.412192 1.21573,-0.09486 2.61204,-0.323421 3.93482,-0.853122 0.63804,-0.255497 1.25864,-0.580826 1.83384,-0.994264 0.56824,-0.408436 1.08105,-0.894928 1.51928,-1.468792 0.60066,-0.648313 1.14657,-1.424155 1.53021,-1.947199 0.66766,-0.910253 1.03482,-1.326792 1.42042,-1.679947 a 1.0121714,1.0121714 90 0 0 -1.36724,-1.492852 c -0.523,0.478989 -0.97923,1.012612 -1.6855,1.975514 -0.43385,0.591492 -0.90266,1.256812 -1.41184,1.799781 -0.0252,0.02686 -0.0489,0.05508 -0.071,0.08453 -0.31439,0.418602 -0.68837,0.777949 -1.11582,1.08519 -0.42364,0.304501 -0.89595,0.554981 -1.40487,0.758776 -1.06601,0.426878 -2.24168,0.628507 -3.33137,0.713562 -3.04049,0.211754 -5.89581,-0.08088 -8.04258,-0.396217 -1.23731,-0.181746 -2.34629,-0.388996 -3.12104,-0.541714 -2.12493,-0.418864 -4.44313,-0.975966 -4.92548,-1.090646 a 1.0121714,1.0121714 90 0 0 -0.46824,1.969446 z" id="path-1-84-4" inkscape:path-effect="#path-effect2837-8;#path-effect2839-8" inkscape:original-d="m 153.85005,49.451801 c 5.13162,1.263962 16.58759,3.786785 21.40019,0.578384 1.85017,-1.233442 3.95763,-4.870731 4.62707,-5.205453" style="fill:#000000;fill-rule:nonzero;stroke:none;stroke-width:1px;stroke-linecap:butt;stroke-linejoin:miter;stroke-opacity:1"/><path d="m 153.34525,49.501168 c 0.28513,0.360639 0.85578,1.087995 1.14091,1.448634 0.46156,0.584244 2.09512,2.688593 3.76797,4.337214 0.007,0.0075 0.0236,0.02372 0.0385,0.03877 0.0208,0.02082 0.0385,0.03857 0.0466,0.04668 a 1.0121714,1.0121714 90 0 0 1.43242,-1.430424 c -0.008,-0.0081 -0.0258,-0.02585 -0.0456,-0.04569 -0.014,-0.01407 -0.0302,-0.03033 -0.0443,-0.04448 -1.57144,-1.54875 -3.12206,-3.542909 -3.60717,-4.156968 -0.33646,-0.425891 -0.80493,-1.023349 -1.14139,-1.449239 a 1.0121714,1.0121714 90 0 0 -1.58798,1.255502 z" id="path-1-6-0" inkscape:path-effect="#path-effect2846-9;#path-effect2848-4" inkscape:original-d="m 154.13924,48.873417 c 2.00458,2.531212 2.96157,3.829145 4.91626,5.783837" style="fill:#000000;fill-rule:nonzero;stroke:none;stroke-width:1px;stroke-linecap:butt;stroke-linejoin:miter;stroke-opacity:1"/><path d="m 154.23534,50.676964 c 0.20411,-0.08402 0.61486,-0.24698 1.23497,-0.432486 0.32224,-0.0964 0.72653,-0.207269 1.30598,-0.345296 0.76428,-0.182053 1.73646,-0.377818 2.76263,-0.639781 0.45605,-0.120116 0.77791,-0.221487 0.99345,-0.293336 a 1.0121714,1.0121714 90 0 0 -0.6402,-1.920446 c -0.18018,0.06007 -0.46026,0.148589 -0.86147,0.254287 -0.9456,0.241364 -1.91965,0.438554 -2.72349,0.63003 -0.61279,0.145967 -1.05438,0.266619 -1.41708,0.37512 -0.70133,0.209802 -1.17743,0.397902 -1.42537,0.499966 a 1.0121714,1.0121714 90 0 0 0.77058,1.871942 z" id="path-1-1-8" inkscape:path-effect="#path-effect2855-9;#path-effect2857-4" inkscape:original-d="m 153.85005,49.740993 c 2.31185,-0.928646 4.41701,-1.086746 6.36222,-1.735151" style="fill:#000000;fill-rule:nonzero;stroke:none;stroke-width:1px;stroke-linecap:butt;stroke-linejoin:miter;stroke-opacity:1"/><text xml:space="preserve" style="font-size:7.76111px;line-height:1.25;font-family:sans-serif;stroke-width:0.264583" x="156.74197" y="41.354427" id="text2863"><tspan sodipodi:role="line" id="tspan2861" style="font-size:7.76111px;stroke-width:0.264583" x="156.74197" y="41.354427">Sliding Images</tspan></text><text xml:space="preserve" transform="matrix(0.26458333,0,0,0.26458333,0,1.1567673)" id="text2865" style="font-size:10.6667px;line-height:1.25;font-family:sans-serif;white-space:pre;shape-inside:url(#rect2867);display:inline"/><g inkscape:label="Layer 1" id="layer1-3" transform="matrix(1.37818,0,0,1.4468702,152.12328,-10.107067)"><rect style="fill:#ffd5d5;fill-opacity:1;stroke:#000000;stroke-width:0.264583" id="rect111" width="33.025051" height="11.349167" x="77.297035" y="10.326719"/><text xml:space="preserve" style="font-size:4.23333px;line-height:1.25;font-family:sans-serif;stroke-width:0.264583" x="87.5215" y="17.177116" id="text167"><tspan sodipodi:role="line" id="tspan165" style="stroke-width:0.264583" x="87.5215" y="17.177116">Home</tspan></text><path style="fill:none;stroke:#000000;stroke-width:0.236579px;stroke-linecap:butt;stroke-linejoin:miter;stroke-opacity:1" d="m 93.618259,21.777813 0.163482,8.998174 v 0" id="path381"/><rect style="fill:#ffaaaa;fill-opacity:1;stroke:#000000;stroke-width:0.295037" id="rect383" width="21.952166" height="6.7049627" x="83.11718" y="37.8074"/><text xml:space="preserve" style="font-size:4.23333px;line-height:1.25;font-family:sans-serif;stroke-width:0.264583" x="84.500526" y="42.67852" id="text387"><tspan sodipodi:role="line" id="tspan385" style="stroke-width:0.264583" x="84.500526" y="42.67852">About us</tspan></text><rect style="fill:#ffaaaa;fill-opacity:1;stroke:#000000;stroke-width:0.256871" id="rect389" width="18.207277" height="6.7431288" x="110.6764" y="37.941681"/><text xml:space="preserve" style="font-size:4.23333px;line-height:1.25;font-family:sans-serif;stroke-width:0.264583" x="111.36816" y="42.63718" id="text393"><tspan sodipodi:role="line" id="tspan391" style="stroke-width:0.264583" x="111.36816" y="42.63718">Contact</tspan></text><rect style="fill:#ffaaaa;fill-opacity:1;stroke:#000000;stroke-width:0.260451" id="rect395" width="21.884506" height="6.7395492" x="55.578747" y="37.943474"/><text xml:space="preserve" style="font-size:4.23333px;line-height:1.25;font-family:sans-serif;stroke-width:0.264583" x="57.196701" y="42.67852" id="text399"><tspan sodipodi:role="line" id="tspan397" style="stroke-width:0.264583" x="57.196701" y="42.67852">Products</tspan></text><path style="fill:none;stroke:#000000;stroke-width:0.264583px;stroke-linecap:butt;stroke-linejoin:miter;stroke-opacity:1" d="m 66.254597,37.728313 c 0,0 3.657524,-6.8504 27.912817,-6.850399 20.960176,1e-6 27.606076,7.054887 27.606076,7.054887" id="path401" sodipodi:nodetypes="csc"/><path style="fill:none;stroke:#000000;stroke-width:0.28303px;stroke-linecap:butt;stroke-linejoin:miter;stroke-opacity:1" d="m 93.743744,30.980295 0.117002,6.850123" id="path562"/><text xml:space="preserve" style="font-size:3.52778px;line-height:1.25;font-family:sans-serif;stroke-width:0.264583" x="56.030121" y="50.304413" id="text566"><tspan sodipodi:role="line" id="tspan564" style="font-size:3.52778px;stroke-width:0.264583" x="56.030121" y="50.304413">Blåhaj</tspan></text><path style="fill:none;stroke:#000000;stroke-width:0.264583px;stroke-linecap:butt;stroke-linejoin:miter;stroke-opacity:1" d="m 55.621142,41.409122 h -3.885301 v 7.872846 h 4.396526 v 0 l -0.204491,-0.102245 v 0" id="path568"/><text xml:space="preserve" style="font-size:3.52778px;line-height:1.25;font-family:sans-serif;stroke-width:0.264583" x="83.533966" y="49.895435" id="text572"><tspan sodipodi:role="line" id="tspan570" style="font-size:3.52778px;stroke-width:0.264583" x="83.533966" y="49.895435">Our mission</tspan></text><path style="fill:none;stroke:#000000;stroke-width:0.264583px;stroke-linecap:butt;stroke-linejoin:miter;stroke-opacity:1" d="m 83.022735,41.511368 h -2.556118 l 0.102243,7.566112 h 2.760609" id="path574"/><text xml:space="preserve" style="font-size:3.52777px;line-height:1.25;font-family:sans-serif;stroke-width:0.264583" x="111.7535" y="50.406662" id="text578"><tspan sodipodi:role="line" id="tspan576" style="stroke-width:0.264583" x="111.7535" y="50.406662">Location</tspan></text><text xml:space="preserve" style="font-size:3.52777px;line-height:1.25;font-family:sans-serif;stroke-width:0.264583" x="111.44678" y="54.496449" id="text582"><tspan sodipodi:role="line" id="tspan580" style="stroke-width:0.264583" x="111.44678" y="54.496449">Email</tspan></text><text xml:space="preserve" style="font-size:3.52777px;line-height:1.25;font-family:sans-serif;stroke-width:0.264583" x="111.44678" y="58.68848" id="text586"><tspan sodipodi:role="line" id="tspan584" style="stroke-width:0.264583" x="111.44678" y="58.68848">Phone number</tspan><tspan sodipodi:role="line" style="stroke-width:0.264583" x="111.44678" y="63.098194" id="tspan588"/></text><path style="fill:none;stroke:#000000;stroke-width:0.264583px;stroke-linecap:butt;stroke-linejoin:miter;stroke-opacity:1" d="m 110.62882,41.306879 h -2.45388 l 0.10225,16.563647 2.9651,-0.102243" id="path590"/><path style="fill:none;stroke:#000000;stroke-width:0.264583px;stroke-linecap:butt;stroke-linejoin:miter;stroke-opacity:1" d="m 108.27719,53.371757 h 2.7606" id="path592"/><path style="fill:none;stroke:#000000;stroke-width:0.264583px;stroke-linecap:butt;stroke-linejoin:miter;stroke-opacity:1" d="m 108.17494,49.384214 3.16959,0.102243" id="path594"/><text xml:space="preserve" style="font-size:3.52777px;line-height:1.25;font-family:sans-serif;stroke-width:0.264583" x="56.541348" y="54.598698" id="text598"><tspan sodipodi:role="line" id="tspan596" style="stroke-width:0.264583" x="56.541348" y="54.598698"/></text><rect style="fill:#ffaaaa;fill-opacity:1;stroke:#000000;stroke-width:0.264583" id="rect600" width="18.813032" height="6.2369294" x="84.147423" y="27.810574"/><text xml:space="preserve" style="font-size:3.52777px;line-height:1.25;font-family:sans-serif;stroke-width:0.264583" x="85.88559" y="32.411587" id="text1922"><tspan sodipodi:role="line" id="tspan1920" style="stroke-width:0.264583" x="85.88559" y="32.411587">Nav Bar</tspan></text></g><rect style="fill:#3dc2e0;fill-opacity:0.88;stroke:#000000;stroke-width:0.315546" id="rect3110" width="29.684454" height="24.684454" x="161.77121" y="90.44696"/><rect style="fill:#3dc2e0;fill-opacity:0.88;stroke:none;stroke-width:0.315546" id="rect3110-0" width="29.684454" height="24.684454" x="161.85397" y="187.48933"/><rect style="fill:#3d5be0;fill-opacity:0.88;stroke:#000000;stroke-width:0.315546" id="rect3110-1" width="29.684454" height="24.684454" x="229.70871" y="90.44696"/><rect style="fill:#3d5be0;fill-opacity:0.88;stroke:none;stroke-width:0.315546" id="rect3110-1-7" width="29.684454" height="24.684454" x="191.11148" y="187.48933"/><text xml:space="preserve" style="font-size:4.58611px;line-height:1.25;font-family:sans-serif;stroke-width:0.264583" x="199.4472" y="104.45635" id="text4566"><tspan sodipodi:role="line" id="tspan4564" style="font-size:4.58611px;stroke-width:0.264583" x="199.4472" y="104.45635">#3DC2E0</tspan></text><text xml:space="preserve" style="font-size:4.58611px;line-height:1.25;font-family:sans-serif;stroke-width:0.264583" x="267.41382" y="104.45635" id="text5370"><tspan sodipodi:role="line" id="tspan5368" style="font-size:4.58611px;stroke-width:0.264583" x="267.41382" y="104.45635">#3D5BE0</tspan></text><rect style="fill:#3d8ee0;fill-opacity:0.88;stroke:#000000;stroke-width:0.315546" id="rect3110-1-3" width="29.684454" height="24.684454" x="161.77121" y="119.4157"/><rect style="fill:#3d8ee0;fill-opacity:0.88;stroke:none;stroke-width:0.315546" id="rect3110-1-3-5" width="29.684454" height="24.684454" x="220.79602" y="187.48933"/><text xml:space="preserve" style="font-size:4.5861px;line-height:1.25;font-family:sans-serif;stroke-width:0.264583" x="199.59839" y="133.42513" id="text6174"><tspan sodipodi:role="line" id="tspan6172" style="stroke-width:0.264583" x="199.59839" y="133.42513">#3D8EE0</tspan></text><rect style="fill:#3ae0c9;fill-opacity:0.88;stroke:#000000;stroke-width:0.315546" id="rect3110-1-3-2" width="29.684454" height="24.684454" x="229.70871" y="119.4157"/><rect style="fill:#3ae0c9;fill-opacity:0.88;stroke:none;stroke-width:0.315546" id="rect3110-1-3-2-1" width="29.684454" height="24.684454" x="250.27588" y="187.48933"/><text xml:space="preserve" style="font-size:4.5861px;line-height:1.25;font-family:sans-serif;stroke-width:0.264583" x="267.58405" y="133.42513" id="text6926"><tspan sodipodi:role="line" id="tspan6924" style="stroke-width:0.264583" x="267.58405" y="133.42513">#3AE0C9</tspan></text><rect style="fill:#533de0;fill-opacity:0.88;stroke:#000000;stroke-width:0.315546" id="rect3110-1-3-2-6" width="29.684454" height="24.684454" x="161.77121" y="148.38448"/><rect style="fill:#533de0;fill-opacity:0.88;stroke:none;stroke-width:0.315546" id="rect3110-1-3-2-6-0" width="29.684454" height="24.684454" x="279.43088" y="187.48933"/><text xml:space="preserve" style="font-size:4.5861px;line-height:1.25;font-family:sans-serif;stroke-width:0.264583" x="199.59055" y="162.39388" id="text8456"><tspan sodipodi:role="line" id="tspan8454" style="stroke-width:0.264583" x="199.59055" y="162.39388">#533DE0</tspan></text></g></svg>